# xmcd
#
# Track frame offsets:
#	150
#	16250
#	32451
#	48874
#	67239
#	84143
#	97392
#	111288
#	129452
#	151319
#	168188
#	183063
#	198588
#	216113
#	232653
#	247444
#	262466
#	277946
#	290873
#	305251
#	306161
#	307266
#	309221
#	310381
#
# Disc length: 4220 seconds
#
# Revision: 0
# Processed by: cddbd v1.5.1PL0 Copyright (c) Steve Scherf et al.
# Submitted via: dBpowerAMP V4.0
#
DISCID=59107a18
DTITLE=Various Artist - CDX Volume 380 October 2005
DYEAR=2005
DGENRE=Country
TTITLE0=Wynonna - Attitude
TTITLE1=Tim McGraw - My Old Friend
TTITLE2=Brad Paisley Featuring Dolly Parton - When I Get Where I'm Going (Single Edit)
TTITLE3=Brad Paisley Featuring Dolly Parton - When I Get Where I'm Going
TTITLE4=Clint Black - Code Of The West
TTITLE5=Dean Miller - Hard Love (Radio Edit)
TTITLE6=Carolina Rain - Let's Get It On
TTITLE7=Keith Bryant - Somebody
TTITLE8=Robert Earl Keen - The Great Hank
TTITLE9=Wayne Newton - The Home Of The Brave
TTITLE10=Zona Jones - I'll Give It To You
TTITLE11=Miko Marks - Freeway Bound
TTITLE12=Michael Chain - Giddyup Cowboy
TTITLE13=Holly - Hold On
TTITLE14=Roger Marshall And The Law - I'm Tired
TTITLE15=Beckey Burr - Love Don't Even Know My Name
TTITLE16=Tim Aaron - Seventeenth Summer
TTITLE17=Shawn King - In My Own Backyard
TTITLE18=Keith Bryant - Ridin' With The Legend
TTITLE19=Brooks and Dunn - CMA Promo Liners
TTITLE20=Brad Paisley - CMA Promo Liners
TTITLE21=Lonestar - CMA Promo Liners
TTITLE22=Katherine Britt - CMA Promo Liners
TTITLE23=Gary Sinese - Iraq Children PSA
EXTD=
EXTT0=
EXTT1=
EXTT2=
EXTT3=
EXTT4=
EXTT5=
EXTT6=
EXTT7=
EXTT8=
EXTT9=
EXTT10=
EXTT11=
EXTT12=
EXTT13=
EXTT14=
EXTT15=
EXTT16=
EXTT17=
EXTT18=
EXTT19=
EXTT20=
EXTT21=
EXTT22=
EXTT23=
PLAYORDER=
